<svg width="114" height="114" viewBox="0 0 114 114" fill="none" xmlns="http://www.w3.org/2000/svg">
<path d="M47.4956 52.0672L34.1977 23.423L19.0321 45.4123L47.4956 52.0672Z" fill="#F4900C"/>
<path d="M63.9984 24.8423L39.8415 52.5615L73.3588 60.398L63.9984 24.8423Z" fill="#F4900C"/>
<path d="M67.0365 56.6359L91.6559 36.8569L95.5 63.2908L67.0365 56.6359Z" fill="#F4900C"/>
<path d="M85.6368 55.9079L80.391 23.2587L58.4087 49.5445L58.389 49.548L58.3736 49.5336L50.3244 16.2264L31.146 43.1677C25.7442 30.1701 19.9614 21.3011 19.9614 21.3011C19.9614 21.3011 16.7663 54.7804 9.45227 86.0632L86.0632 103.975C93.3772 72.6923 105.357 41.2669 105.357 41.2669C105.357 41.2669 96.2415 46.6526 85.6368 55.9079Z" fill="#FFCC4D"/>
<path d="M52.0139 76.3209C57.2153 77.537 62.4177 74.3062 63.6339 69.1048C64.85 63.9034 61.6192 58.7009 56.4178 57.4848C51.2164 56.2687 46.0139 59.4994 44.7978 64.7008C43.5817 69.9023 46.8124 75.1047 52.0139 76.3209Z" fill="#5C913B"/>
<path d="M74.4973 78.141C77.8991 78.9363 81.3016 76.8234 82.0969 73.4216C82.8923 70.0197 80.7793 66.6173 77.3775 65.8219C73.9757 65.0266 70.5733 67.1395 69.7779 70.5413C68.9825 73.9431 71.0955 77.3456 74.4973 78.141Z" fill="#981CEB"/>
<path d="M91.0673 80.8677C93.8683 81.5226 96.6698 79.7828 97.3247 76.9818C97.9796 74.1809 96.2398 71.3793 93.4388 70.7244C90.6378 70.0696 87.8363 71.8093 87.1814 74.6103C86.5265 77.4113 88.2663 80.2128 91.0673 80.8677Z" fill="#DD2E44"/>
<path d="M31.0513 67.9831C34.4531 68.7785 37.8555 66.6655 38.6509 63.2637C39.4462 59.8619 37.3333 56.4594 33.9315 55.6641C30.5297 54.8687 27.1272 56.9817 26.3319 60.3835C25.5365 63.7853 27.6494 67.1878 31.0513 67.9831Z" fill="#981CEB"/>
<path d="M14.9901 63.0806C17.7911 63.7355 20.5927 61.9957 21.2476 59.1947C21.9024 56.3937 20.1627 53.5922 17.3617 52.9373C14.5607 52.2824 11.7592 54.0222 11.1043 56.8232C10.4494 59.6242 12.1892 62.4257 14.9901 63.0806Z" fill="#DD2E44"/>
<path d="M85.4663 106.529L8.85535 88.6169C8.17807 88.4586 7.59143 88.0376 7.22449 87.4468C6.85755 86.8559 6.74037 86.1434 6.89872 85.4661C7.05707 84.7889 7.47799 84.2022 8.06887 83.8353C8.65975 83.4683 9.3722 83.3512 10.0495 83.5095L86.6604 101.421C87.3377 101.58 87.9243 102.001 88.2913 102.592C88.6582 103.182 88.7754 103.895 88.617 104.572C88.4587 105.249 88.0378 105.836 87.4469 106.203C86.856 106.57 86.1436 106.687 85.4663 106.529ZM87.5476 97.6266L10.9367 79.7147C10.2594 79.5564 9.6728 79.1355 9.30586 78.5446C8.93892 77.9537 8.82173 77.2412 8.98008 76.564C9.13844 75.8867 9.55935 75.3 10.1502 74.9331C10.7411 74.5661 11.4536 74.449 12.1308 74.6073L88.7418 92.5192C89.4191 92.6776 90.0057 93.0985 90.3726 93.6894C90.7396 94.2803 90.8568 94.9927 90.6984 95.67C90.5401 96.3473 90.1191 96.9339 89.5283 97.3009C88.9374 97.6678 88.2249 97.785 87.5476 97.6266Z" fill="#FFAC33"/>
<path d="M19.5479 24.9938C21.5323 25.4578 23.5171 24.2252 23.981 22.2409C24.445 20.2565 23.2124 18.2717 21.2281 17.8077C19.2437 17.3438 17.2589 18.5763 16.7949 20.5607C16.331 22.5451 17.5635 24.5299 19.5479 24.9938Z" fill="#FFCC4D"/>
<path d="M33.4861 26.467C35.1672 26.86 36.8487 25.8158 37.2418 24.1347C37.6349 22.4535 36.5906 20.772 34.9095 20.379C33.2283 19.9859 31.5468 21.0301 31.1538 22.7113C30.7607 24.3924 31.8049 26.0739 33.4861 26.467Z" fill="#F4900C"/>
<path d="M49.2587 20.7847C51.7748 21.373 54.2914 19.8102 54.8797 17.2941C55.468 14.778 53.9051 12.2614 51.389 11.6731C48.8729 11.0848 46.3564 12.6476 45.7681 15.1637C45.1798 17.6798 46.7426 20.1964 49.2587 20.7847Z" fill="#FFCC4D"/>
<path d="M104.091 44.7602C106.075 45.2242 108.06 43.9916 108.524 42.0072C108.988 40.0229 107.755 38.0381 105.771 37.5741C103.786 37.1102 101.802 38.3427 101.338 40.3271C100.874 42.3115 102.106 44.2963 104.091 44.7602Z" fill="#FFCC4D"/>
<path d="M90.9443 39.9009C92.6255 40.294 94.307 39.2498 94.7 37.5686C95.0931 35.8874 94.0489 34.2059 92.3677 33.8129C90.6866 33.4198 89.0051 34.464 88.612 36.1452C88.219 37.8264 89.2632 39.5078 90.9443 39.9009Z" fill="#F4900C"/>
<path d="M79.3259 27.8145C81.842 28.4028 84.3585 26.84 84.9468 24.3239C85.5351 21.8078 83.9723 19.2912 81.4562 18.7029C78.9401 18.1147 76.4235 19.6775 75.8352 22.1936C75.247 24.7097 76.8098 27.2263 79.3259 27.8145Z" fill="#FFCC4D"/>
<path d="M62.9333 29.3981C65.4494 29.9864 67.966 28.4235 68.5542 25.9075C69.1425 23.3914 67.5797 20.8748 65.0636 20.2865C62.5475 19.6982 60.0309 21.261 59.4427 23.7771C58.8544 26.2932 60.4172 28.8098 62.9333 29.3981Z" fill="#F4900C"/>
</svg>
