<svg width="49" height="49" viewBox="0 0 49 49" fill="none" xmlns="http://www.w3.org/2000/svg">
<path fill-rule="evenodd" clip-rule="evenodd" d="M26.3375 3.06254C31.2375 3.36879 35.8313 5.81879 39.2 9.18754C43.1813 13.475 45.325 18.6813 45.325 24.8063C45.325 29.7063 43.4875 34.3 40.425 38.2813C37.3625 41.9563 33.075 44.7125 28.175 45.6313C23.275 46.55 18.375 45.9375 14.0875 43.4875C9.80003 41.0375 6.43128 37.3625 4.59378 32.7688C2.75628 28.175 2.45003 22.9688 3.98128 18.375C5.51253 13.475 8.26878 9.49379 12.5563 6.73754C16.5375 3.98129 21.4375 2.75629 26.3375 3.06254ZM27.8688 42.5688C31.85 41.65 35.525 39.5063 38.2813 36.1375C40.7313 32.7688 42.2625 28.7875 41.9563 24.5C41.9563 19.6 39.3688 14.8687 36 11.5C32.9375 8.4375 30.0125 6.43129 25.725 6.12504C21.7438 5.81879 17.4563 6.73754 14.0875 9.18754C10.7188 11.6375 8.725 14.7125 7.5 19C6.275 22.9813 5.81878 27.5625 7.65628 31.5438C9.49378 35.525 12.25 38.5875 15.925 40.7313C19.6 42.875 23.8875 43.4875 27.8688 42.5688Z" fill="white"/>
<path fill-rule="evenodd" clip-rule="evenodd" d="M18.5 14.5L20.7546 14.0386L35 23.5V25L20.7546 34.9616L18 34L18.5 14.5ZM21.4375 18.1729V30.8272L30.9282 24.5001L21.4375 18.1729Z" fill="white"/>
</svg>
