<svg width="41" height="41" viewBox="0 0 41 41" fill="none" xmlns="http://www.w3.org/2000/svg">
<path d="M20.4999 8.54166V3.41666L13.6666 10.25L20.4999 17.0833V11.9583C26.1545 11.9583 30.7499 16.5537 30.7499 22.2083C30.7499 27.2821 27.0428 31.4846 22.2083 32.3046V35.7554C28.9562 34.9183 34.1666 29.1783 34.1666 22.2083C34.1666 14.6575 28.0507 8.54166 20.4999 8.54166ZM10.2499 22.2083C10.2499 19.3896 11.3945 16.8271 13.2566 14.965L10.8308 12.5392C8.27063 15.1058 6.83302 18.5831 6.83325 22.2083C6.83325 29.1783 12.0437 34.9183 18.7916 35.7554V32.3046C13.957 31.4846 10.2499 27.2821 10.2499 22.2083Z" fill="white"/>
</svg>
