<svg width="409" height="366" viewBox="0 0 409 366" fill="none" xmlns="http://www.w3.org/2000/svg">
<path d="M117.063 40.1396L117.468 40.4328L117.063 40.1396C116.26 41.2493 115.503 42.2562 114.932 42.9838C114.645 43.3484 114.409 43.6383 114.238 43.8348C114.215 43.8614 114.194 43.8857 114.174 43.9078C114.136 43.8917 114.094 43.8735 114.048 43.8534C113.804 43.7459 113.462 43.5888 113.046 43.3931C112.216 43.0021 111.104 42.4618 109.91 41.867C90.8933 32.3946 67.2956 33.9171 49.5182 45.7608C44.4047 49.1672 37.256 56.5052 34.0109 61.6796C28.6708 70.1925 26.201 78.7124 26.2106 88.5934C26.2271 104.978 33.671 119.609 47.1464 129.776L47.4476 129.377L47.1465 129.776L49.966 131.903L45.9277 133.687C32.0895 139.803 20.0508 149.115 11.8271 160.081L12.2271 160.381L11.8271 160.081C10.0424 162.46 7.95545 166.18 6.14481 169.999C4.33426 173.818 2.7796 177.779 2.07584 180.648C-1.91712 196.93 1.74269 213.814 12.3172 228.006C16.3527 233.422 25.4094 241.853 31.5472 245.914C54.9599 261.403 85.5902 266.731 116.73 260.771L121.107 259.933L126.781 262.757C162.478 280.523 209.142 285.542 251.584 276.201C272.957 271.497 294.887 261.992 311.345 250.293L315.824 247.109L319.939 248.184C332.329 251.42 344.293 251.26 356.419 247.694C359.009 246.932 362.849 245.283 366.582 243.427C370.315 241.571 373.985 239.489 376.232 237.847C407.892 214.709 417.748 169.654 399.101 133.499C392.508 120.714 383.095 110.446 371.685 103.611L367.744 101.251L367.65 94.646C367.503 84.3916 364.542 75.0223 358.808 66.6756C356.137 62.7882 350.049 56.6456 346.065 53.8152L345.775 54.2228L346.065 53.8151C341.371 50.4806 332.857 46.5 327.349 45.0652L327.222 45.5491L327.348 45.0652C317.993 42.629 304.351 43.0368 295.314 46.0256C294.176 46.4019 293.131 46.7251 292.365 46.9428C291.981 47.0519 291.674 47.1327 291.463 47.1804C291.456 47.1819 291.449 47.1835 291.442 47.1849C291.397 47.1194 291.344 47.0416 291.282 46.9523C291.183 46.8077 291.064 46.6332 290.926 46.4327C290.791 46.2346 290.638 46.0111 290.47 45.7658C289.794 44.7785 288.878 43.4388 287.885 41.985L287.472 42.2671L287.885 41.985C273.083 20.3249 247.4 5.45384 217.646 1.25893L217.576 1.75403L217.646 1.25893C214.006 0.745781 207.808 0.495383 201.649 0.500064C195.49 0.504745 189.32 0.764507 185.736 1.28321L185.808 1.77805L185.736 1.28321C168.976 3.70947 153.334 9.56907 139.932 18.4477C132.813 23.1644 121.777 33.63 117.063 40.1396ZM114.392 43.9947C114.391 43.9946 114.391 43.9945 114.391 43.9944C114.405 43.9978 114.407 43.9995 114.392 43.9947ZM291.606 47.4226L291.606 47.4221L291.606 47.4226ZM111.48 288.117C103.526 288.898 96.6407 292.294 91.1005 298.166C78.6788 311.33 79.0571 331.213 91.9667 343.995C98.3642 350.33 105.695 353.3 114.908 353.3C124.287 353.3 131.444 350.346 138.127 343.717C144.81 337.089 147.79 329.989 147.79 320.683C147.79 311.928 144.897 304.632 138.945 298.391C131.524 290.61 122.084 287.077 111.48 288.117ZM163.1 335.798C157.268 338.492 153.607 345.017 154.28 351.49C155.028 358.681 161.069 364.682 168.29 365.415C174.766 366.073 180.584 362.86 183.68 356.941C184.55 355.279 185.053 354.236 185.292 353.143C185.532 352.047 185.501 350.93 185.387 349.137C185.095 344.582 183.734 341.457 180.77 338.645C176.209 334.317 168.863 333.137 163.1 335.798Z" fill="white" stroke="black"/>
</svg>
