<svg width="409" height="366" viewBox="0 0 409 366" fill="none" xmlns="http://www.w3.org/2000/svg">
<path d="M291.937 40.1396L291.532 40.4328L291.937 40.1396C292.74 41.2493 293.497 42.2562 294.068 42.9838C294.355 43.3484 294.591 43.6383 294.762 43.8348C294.785 43.8614 294.806 43.8857 294.826 43.9078C294.864 43.8917 294.906 43.8735 294.952 43.8534C295.196 43.7459 295.538 43.5888 295.954 43.3931C296.784 43.0021 297.896 42.4618 299.09 41.867C318.107 32.3946 341.704 33.9171 359.482 45.7608C364.595 49.1672 371.744 56.5052 374.989 61.6796C380.329 70.1925 382.799 78.7124 382.789 88.5934C382.773 104.978 375.329 119.609 361.854 129.776L361.559 129.385L361.854 129.776L359.034 131.903L363.072 133.687L362.87 134.145L363.072 133.687C376.911 139.803 388.949 149.115 397.173 160.081C398.958 162.46 401.045 166.18 402.855 169.999C404.666 173.818 406.22 177.779 406.924 180.648C410.917 196.93 407.257 213.814 396.683 228.006C392.647 233.422 383.591 241.853 377.453 245.914C354.04 261.403 323.41 266.731 292.27 260.771L287.893 259.933L282.219 262.757C246.522 280.523 199.858 285.542 157.416 276.201C136.043 271.497 114.113 261.992 97.6553 250.293L93.1757 247.109L89.0606 248.184C76.6711 251.42 64.707 251.26 52.5809 247.694C49.9905 246.932 46.151 245.283 42.4182 243.427C38.6848 241.572 35.0146 239.489 32.7685 237.847C1.10764 214.709 -8.74829 169.654 9.89868 133.499C16.4924 120.714 25.9052 110.446 37.3153 103.611L41.2555 101.251L41.3501 94.646C41.4968 84.3916 44.4579 75.0223 50.1924 66.6756C52.863 62.7882 58.9507 56.6456 62.935 53.8152L63.2245 54.2228L62.935 53.8151C67.6294 50.4806 76.1434 46.5 81.6515 45.0652L81.7756 45.5418L81.6515 45.0652C91.0067 42.629 104.649 43.0368 113.686 46.0256C114.824 46.4019 115.869 46.7251 116.635 46.9428C117.019 47.0519 117.326 47.1327 117.537 47.1804C117.544 47.1819 117.551 47.1835 117.558 47.1849C117.603 47.1194 117.656 47.0416 117.718 46.9523C117.915 46.6648 118.192 46.2594 118.53 45.7658C119.206 44.7785 120.122 43.4388 121.115 41.985C135.917 20.3249 161.6 5.45384 191.354 1.25893C194.994 0.745781 201.192 0.495383 207.351 0.500064C213.51 0.504745 219.68 0.764507 223.264 1.28321L223.192 1.77798L223.264 1.28321C240.024 3.70947 255.666 9.56907 269.068 18.4477C276.187 23.1644 287.223 33.63 291.937 40.1396ZM294.608 43.9947C294.609 43.9946 294.609 43.9945 294.609 43.9944C294.595 43.9978 294.593 43.9995 294.608 43.9947ZM117.394 47.4226L117.394 47.4221L117.394 47.4226ZM297.52 288.117C305.474 288.899 312.359 292.294 317.899 298.166C330.321 311.33 329.943 331.213 317.033 343.995C310.636 350.33 303.305 353.3 294.092 353.3C284.713 353.3 277.556 350.346 270.873 343.717C264.19 337.089 261.21 329.989 261.21 320.683C261.21 311.928 264.103 304.632 270.055 298.391C277.476 290.61 286.916 287.077 297.52 288.117ZM245.9 335.798C251.732 338.492 255.393 345.017 254.72 351.49C253.972 358.681 247.931 364.682 240.71 365.415C234.234 366.073 228.416 362.86 225.32 356.941C224.45 355.279 223.947 354.236 223.708 353.143C223.468 352.047 223.499 350.93 223.613 349.137C223.905 344.582 225.266 341.457 228.23 338.645C232.791 334.317 240.137 333.137 245.9 335.798Z" fill="white" stroke="black"/>
</svg>
