<svg width="140" height="185" viewBox="0 0 140 185" fill="none" xmlns="http://www.w3.org/2000/svg">
<path d="M66.6268 23.2849C39.546 24.9157 25.3052 40.2923 24.1379 68.0166H51.4522C51.6857 58.4645 57.2886 51.2422 67.0937 50.0773C76.8989 49.1454 86.2371 51.4752 89.0385 57.9986C92.0735 65.2209 85.3033 73.6081 82.0349 77.1027C75.965 83.6261 66.1599 88.5186 61.0239 95.508C56.1213 102.497 55.1875 111.583 54.7206 122.766H78.7665C79 115.544 79.4669 108.788 82.7352 104.361C88.1047 97.1388 96.0422 93.8771 102.579 88.0527C108.882 82.6942 115.652 76.1708 116.586 65.9198C120.555 35.8657 95.8087 21.4211 66.6268 23.2849Z" fill="#FF9457"/>
<path d="M67.3272 162.839C75.7079 162.839 82.5018 156.163 82.5018 147.928C82.5018 139.693 75.7079 133.017 67.3272 133.017C58.9465 133.017 52.1526 139.693 52.1526 147.928C52.1526 156.163 58.9465 162.839 67.3272 162.839Z" fill="#FF9457"/>
</svg>
