<svg xmlns="http://www.w3.org/2000/svg" viewBox="0 0 299 364"><defs><style>.cls-1{fill:#FF9457;}</style></defs><title>Paper</title><g id="Hand_icons" data-name="Hand icons"><path class="cls-1" d="M265.89,61.11a18.1,18.1,0,0,0-18.07,18.07v86.39a4,4,0,0,1-8,0V36.72a21.2,21.2,0,0,0-21.18-21.18,21,21,0,0,0-15.28,6.29,21.44,21.44,0,0,0-5.9,15V165.57a4,4,0,0,1-8,0V38.4A22.89,22.89,0,0,0,166.6,15.54c-14.31,0-22.86,12.36-22.86,24.3V165.57a4,4,0,0,1-8,0V62.6a21.2,21.2,0,0,0-21.18-21.18C101.3,41.42,93.38,52.87,93.38,64V220.21h47a64.49,64.49,0,0,1,48.85,22.37,4,4,0,0,1-.41,5.64,4,4,0,0,1-5.64-.41,56.51,56.51,0,0,0-42.8-19.6h-51a4.53,4.53,0,0,1-.53-.05l-.21,0a4.43,4.43,0,0,1-1-.32l-.21-.11a4.64,4.64,0,0,1-.74-.51l-.1-.08L66.81,208.49a37.67,37.67,0,0,0-52.56.73,9.8,9.8,0,0,0-.3,13.64l75.11,81.49c30.13,33.4,60.75,47,105.69,47,49.19,0,89.21-40.43,89.21-90.14V80.07C284,70.88,277.63,61.11,265.89,61.11Z"/></g></svg>