<svg xmlns="http://www.w3.org/2000/svg" viewBox="0 0 238 257.25"><defs><style>.cls-1{fill:#FF9457;}</style></defs><title>Rock</title><g id="Camada_2" data-name="Camada 2"><g id="Hand_icons" data-name="Hand icons"><path class="cls-1" d="M180.53,80V26.59a26.59,26.59,0,1,0-53.17,0V78.52h46.89A14.26,14.26,0,0,1,180.53,80Z"/><path class="cls-1" d="M57.51,78.52V24.57a22.22,22.22,0,0,0-44.44,0V91.05A56.22,56.22,0,0,1,48.5,78.52Z"/><path class="cls-1" d="M213.26,134.05A32.74,32.74,0,0,1,185,117.68a49.62,49.62,0,0,1-46,31.11H105.72a54.65,54.65,0,0,1,26.19,46.62v15a4,4,0,0,1-8,0v-15a46.67,46.67,0,0,0-46.62-46.62h-.72a4,4,0,0,1-4-4h0a4,4,0,0,1,4-4H139a41.62,41.62,0,0,0,41.56-41.56V92.79a6.28,6.28,0,0,0-6.28-6.27H48.5a48.44,48.44,0,0,0-36.95,17.12c-.67.79-1.32,1.6-1.94,2.43-.25.34-.49.69-.74,1-.61.86-1.2,1.73-1.75,2.63-.18.29-.34.59-.52.89-.56,1-1.09,1.93-1.58,2.93-.08.16-.17.32-.25.49-.56,1.16-1.06,2.34-1.52,3.54l-.18.46c-.46,1.22-.86,2.46-1.21,3.71-.05.16-.1.32-.14.48-.34,1.25-.63,2.53-.88,3.81l-.09.5c-.22,1.29-.41,2.59-.53,3.91l0,.45C.07,132.27,0,133.64,0,135c0,3.3.17,6.55.43,9.78,5,62.84,57.7,112.46,121.81,112.46h14.54A101.33,101.33,0,0,0,238,156V122.69A32.63,32.63,0,0,1,213.26,134.05Z"/><path class="cls-1" d="M119.36,26.92a26.93,26.93,0,0,0-53.85,0v51.6h53.85Z"/><path class="cls-1" d="M213.26,39a24.77,24.77,0,0,0-24.73,24.73v37.61a24.74,24.74,0,0,0,49.47,0V63.71A24.77,24.77,0,0,0,213.26,39Z"/></g></g></svg>